"King Of Trios - Night 1" - Easton, PA
September 14, 2012

1. The Colony (Green Ant, Fire Ant & assailANT) vs. Sendai Girls (Meiko Satomura, Dash Chisako & Sendai Sachiko)

2. The Batiri (Obariyon, Kodama & Kobald) vs. 3.0 & Akuma

3. Osaka Pro (Kikutaro, Ebessan & Takoyakida) vs. F.I.S.T. (Chuck Taylor, Johnny Gargano & Icarus)

4. The Swarm (combatANT, deviANT & Soldier Ant) vs. Manami Toyota, Mike Quackenbush & Jigsaw

5. The Throwbacks (Mr. Touchdown, Dasher Hatfield & Matt Classic) vs. Team JWP (Commando Bolshoi, Tsubasa Kuragaki & Kaori Yoneyama)

6. The Spectral Envoy (Hallowicked, Frightmare & UltraMantis Black) vs. ???

7. The Faces Of Pain (Meng, The Warlord & The Barbarian) vs. Team ROH (The Young Bucks & Mike Bennett)

8. Team WWF (Aldo Montoya, Tatanka & 1-2-3 Kid) vs. The Extreme Trio (Jerry Lynn, Too Cold Scorpio & Tommy Dreamer)

Cover Art: http://bayimg.com/FadjmAaEa

Screenshots: 
http://bayimg.com/FADJNAaEA 
http://bayimg.com/fADjoAaEA 
http://bayimg.com/FADJPaaEA 
http://bayimg.com/gadjAaaEa

General
Complete name			: Chikara.King.of.Trios.2012.Night.1.DVDrip.MP4.AAC.mp4 
Format				: MPEG-4 
Format profile			: Base Media / Version 2 
Codec ID			: mp42 
File size			: 2.20 GiB 
Duration			: 2h 59mn 
Overall bit rate		: 1 758 Kbps 
Encoded date			: UTC 2012-09-16 00:01:19 

Video
Format				: AVC 
Format/Info			: Advanced Video Codec 
Format profile			: Baseline@L3.0 
Format settings, CABAC		: No 
Format settings, ReFrames	: 2 frames 
Codec ID			: avc1 
Codec ID/Info			: Advanced Video Coding 
Duration			: 2h 59mn 
Bit rate			: 1 626 Kbps 
Width				: 854 pixels 
Height				: 480 pixels 
Display aspect ratio		: 16:9 
Frame rate mode			: Constant 
Frame rate			: 29.970 fps 
Color space			: YUV 
Chroma subsampling		: 4:2:0 
Bit depth			: 8 bits 
Scan type			: Progressive 
Bits/(Pixel*Frame)		: 0.132 
Stream size			: 2.04 GiB (93%) 
Language			: English 

Audio
Format				: AAC 
Format/Info			: Advanced Audio Codec 
Format profile			: LC 
Codec ID			: 40 
Duration			: 2h 59mn 
Bit rate mode			: Constant 
Bit rate			: 128 Kbps 
Channel(s)			: 2 channels 
Channel positions		: Front: L R 
Sampling rate			: 48.0 KHz 
Compression mode		: Lossy 
Stream size			: 164 MiB (7%) 
Language			: English 
